# xmcd CD database file
#
# Track frame offsets:
#	150
#	13350
#	26772
#	44908
#	67418
#	87918
#	108635
#	125210
#	140360
#	153542
#	168654
#	185313
#	195572
#
# Disc length: 2881 seconds
#
# Revision: 0
# Processed by: cddbd v1.5.2PL0 Copyright (c) Steve Scherf et al.
# Submitted via: CDex 1.76
#
DISCID=cb0b3f0d
DTITLE=Blue Swing Trio - Blue Swing Trio
DYEAR=2013
DGENRE=Jazz
TTITLE0=Les Parapluies de Cherbourg
TTITLE1=Hungaria
TTITLE2=My Dream of You
TTITLE3=La Foule
TTITLE4=Swing 39
TTITLE5=Le Poinconneur des Lilas
TTITLE6=Les Yeux Noirs
TTITLE7=Swing Gitan
TTITLE8=Paquito
TTITLE9=Coquette
TTITLE10=Bossa Dorado
TTITLE11=La Partita
TTITLE12=Blue Drag
EXTD=YEAR: 2013
EXTT0=
EXTT1=
EXTT2=
EXTT3=
EXTT4=
EXTT5=
EXTT6=
EXTT7=
EXTT8=
EXTT9=
EXTT10=
EXTT11=
EXTT12=
PLAYORDER=
